<?xml version="1.0" encoding="utf-8"?>
<!-- Generator: Adobe Illustrator 18.0.0, SVG Export Plug-In . SVG Version: 6.00 Build 0)  -->
<!DOCTYPE svg PUBLIC "-//W3C//DTD SVG 1.1//EN" "http://www.w3.org/Graphics/SVG/1.1/DTD/svg11.dtd">
<svg version="1.1" id="Layer_1" xmlns="http://www.w3.org/2000/svg" xmlns:xlink="http://www.w3.org/1999/xlink" x="0px" y="0px"
	 viewBox="0 0 512 512" enable-background="new 0 0 512 512" xml:space="preserve">
<path fill="#FCFCFC" d="M505,478.9L361.4,335.3c28.9-34.7,46.2-79.3,46.2-128C407.6,96.7,317.9,7,207.3,7C96.7,7,7,96.7,7,207.3
	c0,110.6,89.7,200.3,200.3,200.3c48.7,0,93.3-17.4,128-46.2L478.9,505L505,478.9z M28.1,207.3c0-98.8,80.4-179.2,179.2-179.2
	c98.8,0,179.2,80.4,179.2,179.2c0,98.8-80.4,179.2-179.2,179.2C108.5,386.5,28.1,306.1,28.1,207.3z"/>
<rect x="105.2" y="197.4" fill="#FCFCFC" width="200.7" height="21.1"/>
<rect x="195" y="107.6" fill="#FCFCFC" width="21.1" height="200.7"/>
</svg>
